<?xml version="1.0" standalone="no"?><!DOCTYPE svg PUBLIC "-//W3C//DTD SVG 1.1//EN" "http://www.w3.org/Graphics/SVG/1.1/DTD/svg11.dtd"><svg t="1596442449681" class="icon" viewBox="0 0 1024 1024" version="1.1" xmlns="http://www.w3.org/2000/svg" p-id="46049" xmlns:xlink="http://www.w3.org/1999/xlink" width="200" height="200"><defs><style type="text/css"></style></defs><path d="M877.983609 695.478323H145.529873c-37.340302 0-67.747714-30.407412-67.747714-67.747714V396.51265c0-37.340302 30.407412-67.747714 67.747714-67.747714h732.575365c37.340302 0 67.747714 30.407412 67.747714 67.747714v231.339589c-0.243259 37.218672-30.650671 67.626084-67.869343 67.626084zM145.529873 349.077088c-26.150374 0-47.435562 21.163559-47.435563 47.435562v231.339589c0 26.150374 21.163559 47.435562 47.435563 47.435562h732.575365c26.150374 0 47.435562-21.163559 47.435563-47.435562V396.51265c0-26.150374-21.163559-47.435562-47.435563-47.435562H145.529873z m0 0" fill="#d81e06" p-id="46050"></path><path d="M403.384725 591.484974c-4.013778 5.351704-7.905927 11.189928-11.919705 17.51467-37.218672-20.79867-65.923269-47.678822-85.992161-80.518827v99.006533h-16.541632v-98.763274c-21.528448 31.866968-50.233044 59.598527-86.11379 83.194679-2.675852-4.257038-6.568001-9.608742-11.433187-15.933484 38.434969-22.501485 68.720751-49.624896 90.978976-81.248604h-87.573346v-17.514669h94.262977v-44.516451H207.317734v-17.514669h81.735123v-40.502673h16.541632v40.502673H388.059389v17.514669h-82.58653v44.516451h94.262977v17.514669H311.432712c22.866374 33.934672 53.395415 59.598527 91.952013 76.748307zM491.566219 534.44067c0.851408 6.93289 1.946074 13.379261 3.40563 19.217484-14.717187 12.649483-28.826226 25.663856-42.205487 39.043117-3.770519 3.892149-7.05452 8.027557-9.730372 12.284594l-12.527854-14.717187c4.500297-5.230075 6.81126-12.162965 6.811261-20.79867v-79.789048h-28.461338v-17.028151h45.00297V569.226749c10.46015-9.365483 22.988003-20.920299 37.70519-34.786079z m-50.841192-135.373797c13.62252 15.325336 25.542226 29.312745 35.880746 41.962228l-14.595558 13.500891c-9.852001-13.86578-21.163559-28.461337-33.691412-43.543414l12.406224-11.919705z m93.776458-1.824445h17.14978c-0.12163 20.79867-0.364889 41.110821-0.729778 61.058083 7.784297 72.126381 31.01556 120.899869 69.693788 146.563725-5.108445 6.324742-9.730372 12.406224-13.74415 18.244447-30.164153-23.717781-50.719563-61.544601-61.666231-113.72372-7.784297 47.678822-29.556004 87.086827-65.193491 117.980757-3.284-4.378667-7.297779-9.487112-12.284595-15.203706 43.908303-35.272598 65.923269-86.965198 66.166529-155.199429 0.364889-17.757928 0.608148-37.583561 0.608148-59.720157zM692.741656 538.211189c0.608148 5.473334 1.946074 12.406224 4.013778 20.55541-17.14978 18.974225-30.042523 34.056301-38.799857 45.246229L645.914242 588.687493c4.257038-6.689631 6.324742-14.473928 6.324741-23.717782v-74.194084h-25.663855v-17.028151h41.962228v92.438532c6.568001-6.93289 14.595558-16.298373 24.2043-27.974819zM647.130538 398.458724c16.541632 18.852595 28.096449 32.353486 34.786079 40.745932l-14.838817 13.98741c-8.878964-12.892743-19.825632-27.001782-32.840005-42.205488l12.892743-12.527854z m33.083264 199.229362h29.434375V466.692956h16.298372v130.99513h33.691413V424.487469h-67.869343v-17.514669h141.698539V424.487469h-56.922675v71.274973h49.260007V513.277111h-49.260007v84.289346h60.206675v17.514669H680.213802v-17.39304z" fill="#d81e06" p-id="46051"></path></svg>