<?xml version="1.0" encoding="UTF-8"?>
<svg width="32px" height="32px" viewBox="0 0 32 32" version="1.1" xmlns="http://www.w3.org/2000/svg" xmlns:xlink="http://www.w3.org/1999/xlink">
    <title>icon1-member</title>
    <g id="控件" stroke="none" stroke-width="1" fill="none" fill-rule="evenodd">
        <g id="icon1-member" fill="#477CCC">
            <path d="M18.7195444,19 C18.7195444,19 22.7727273,20.6103625 25.3863636,21.6752029 C28,22.7400432 28,27 28,27 L5,27 L5.0003267,26.9689822 C5.00653409,26.5819921 5.13068182,22.6868012 7.61363636,21.6752029 C10.2272727,20.6103625 14.281625,19 14.281625,19 C14.281625,19 13.8863636,19.6461699 16.5,19.6461699 C19.1136364,19.6461699 18.7195444,19 18.7195444,19 Z M6.11469383,17 C6.11469383,17 6.92889402,17.856575 8.96502468,17.856575 C10.0035711,17.856575 10.7295452,17.6333223 11.1839093,17.4100696 C11.4353534,17.8499503 11.712005,18.2414707 12,18.6111295 C9.93614116,19.274263 5.63386199,20.7204372 4.51276126,21.594899 C4.11133284,21.9075853 3.80632287,22.4203379 3.57189371,23 L3.57189371,23 L0,23 C0,23 0,19.5750248 2.03613066,18.7191123 C4.07226132,17.856575 6.11469383,17 6.11469383,17 Z M26.0046346,17 C26.0046346,17 28.0067975,17.856575 30.0033987,18.7191123 C32,19.5750248 32,23 32,23 L32,23 L28.22926,23 C27.999382,22.4203379 27.7002935,21.9075853 27.3066584,21.594899 C26.2135022,20.725737 22.0373861,19.2908248 20,18.623054 C20.3071219,18.2255714 20.5994129,17.800265 20.8589526,17.3232859 C21.287193,17.5650878 22.0454194,17.856575 23.2090221,17.856575 C25.2056234,17.856575 26.0046346,17 26.0046346,17 Z M16.5,5 C20.35,5 22,6.5 22,10.5 C22,14.4994407 19.25,18 16.5,18 C13.75,18 11,14.4994407 11,10.5 C11,6.5 13.2,5 16.5,5 Z M10.2082131,7.02201071 C9.93984462,8.15288519 9.7900111,9.37299227 9.7900111,10.6377156 C9.7900111,10.9494349 9.79600444,11.256395 9.82064373,11.5627603 C9.85194229,12.8720999 10.0890122,14.1148126 10.4885683,15.2397383 C10.4825749,15.251041 10.4885683,15.2569899 10.4945616,15.2676978 C10.6443951,15.6799524 10.8128746,16.0809042 11,16.4598453 L10.9440622,16.4937537 L10.9440622,16.4937537 C10.8382961,16.5596973 10.7307261,16.6198147 10.6217204,16.6737365 C10.7039271,16.774318 10.7903029,16.8742352 10.8795,16.9723435 C10.8505,16.9810771 10.8235,16.9907812 10.7945,17 C10.7161417,16.9012694 10.6405652,16.8009098 10.5677111,16.6991374 C10.1600932,16.8932791 9.73165592,17 9.30321865,17 C7.15160932,17 5,14.3093397 5,11.2337894 C5,8.15288519 6.72142064,7 9.30321865,7 C9.50899001,7 9.86459489,7.00475907 10.2082131,7.02201071 Z M23.8159681,7 C26.7406529,7 28,8.15288519 28,11.2337894 C28,14.3093397 25.9053981,17 23.8159681,17 C23.2108609,17 22.5992889,16.7721594 22.0420213,16.3652588 C22.0303847,16.3599048 22.0116367,16.348602 22,16.3372992 C22.1751966,15.964307 22.3271199,15.5687091 22.4661136,15.1671624 C22.4906799,15.0838786 22.5145997,14.994646 22.5449844,14.9054134 C22.8656395,13.8744795 23.0537658,12.7555027 23.0841504,11.579417 C23.0841504,11.5574063 23.0899688,11.5348007 23.0899688,11.51279 C23.1080703,11.2224866 23.1138886,10.933373 23.1138886,10.6377156 C23.1138886,9.37894111 22.9748949,8.16418798 22.7143627,7.03866746 C23.1203534,7.01070791 23.5496175,7 23.8159681,7 Z" id="形状结合"></path>
        </g>
    </g>
</svg>