<?xml version="1.0" standalone="no"?><!DOCTYPE svg PUBLIC "-//W3C//DTD SVG 1.1//EN" "http://www.w3.org/Graphics/SVG/1.1/DTD/svg11.dtd"><svg t="1602487275014" class="icon" viewBox="0 0 1024 1024" version="1.1" xmlns="http://www.w3.org/2000/svg" p-id="622" xmlns:xlink="http://www.w3.org/1999/xlink" width="200" height="200"><defs><style type="text/css"></style></defs><path d="M0 285.96224l0 403.83488 1024 0L1024 285.96224 0 285.96224zM1009.58208 675.3792 14.41792 675.3792l0-374.9888 995.15392 0L1009.57184 675.3792z" p-id="623" fill="#12df12"></path><path d="M708.54656 401.94048c-8.82688-9.95328-24.22784-26.10176-46.19264-48.44544l-17.17248 14.92992c17.27488 18.03264 31.82592 34.74432 43.65312 50.14528L708.54656 401.94048z" p-id="624" fill="#12df12"></path><path d="M669.10208 551.51616c0 10.88512-2.816 20.2752-8.448 28.17024l16.05632 18.31936c11.64288-13.32224 28.83584-31.27296 51.54816-53.80096-2.79552-9.7792-4.58752-17.94048-5.33504-24.51456-12.77952 13.90592-23.48032 24.97536-32.12288 33.23904L690.80064 443.07456l-55.76704 0 0 20.2752 34.07872 0L669.11232 551.51616z" p-id="625" fill="#12df12"></path><path d="M811.9296 590.3872 767.15008 590.3872 767.15008 434.61632 745.46176 434.61632 745.46176 590.39744 706.304 590.39744 706.304 611.23584 914.47296 611.23584 914.47296 590.39744 834.47808 590.39744 834.47808 590.3872 834.47808 490.10688 899.81952 490.10688 899.81952 469.25824 834.47808 469.25824 834.47808 384.47104 909.95712 384.47104 909.95712 363.63264 721.78688 363.63264 721.78688 384.47104 811.9296 384.47104Z" p-id="626" fill="#12df12"></path><path d="M298.02496 461.3632 129.57696 461.3632l0-38.59456-24.22784 0L105.34912 569.2416c0 29.66528 14.36672 44.50304 43.08992 44.50304l149.8624 0c25.91744 0 41.69728-10.61888 47.31904-31.82592 3.00032-11.64288 5.82656-27.22816 8.448-46.75584-8.82688-2.43712-16.90624-5.26336-24.22784-8.448-1.66912 19.16928-4.20864 34.48832-7.58784 45.93664-3.3792 11.64288-13.14816 17.46944-29.29664 17.46944L154.09152 590.12096c-16.34304 0-24.50432-8.64256-24.50432-25.91744l0-81.98144 168.45824 0 0 17.17248 23.66464 0 0-131.2768L94.9248 368.11776l0 20.8384 203.10016 0L298.02496 461.3632z" p-id="627" fill="#12df12"></path><path d="M393.96352 556.86144c0 10.32192-3.00032 18.5856-9.0112 24.79104l16.61952 17.46944c3.56352-5.07904 7.8848-9.95328 12.9536-14.65344 17.83808-15.96416 36.53632-31.45728 56.064-46.47936-1.86368-6.93248-3.35872-14.5408-4.48512-22.80448-19.52768 16.52736-36.23936 30.33088-50.14528 41.41056L415.95904 441.66144l-59.71968 0 0 20.2752 37.74464 0L393.984 556.86144z" p-id="628" fill="#12df12"></path><path d="M434.24768 607.56992c6.57408 6.76864 12.01152 12.75904 16.34304 18.03264 47.42144-36.80256 76.29824-83.56864 86.62016-140.288 14.46912 61.97248 41.73824 107.04896 81.83808 135.20896 5.44768-6.95296 11.55072-14.17216 18.29888-21.68832-51.3536-30.4128-82.19648-88.49408-92.5184-174.22336 0.48128-23.66464 0.78848-47.84128 0.98304-72.52992l-22.81472 0c0 26.29632-0.28672 49.96096-0.84992 70.98368C521.76896 504.19712 492.47232 565.68832 434.24768 607.56992z" p-id="629" fill="#12df12"></path><path d="M446.08512 404.18304c-13.71136-15.03232-29.58336-31.6416-47.60576-49.85856l-16.61952 14.09024c16.71168 18.03264 31.6416 35.30752 44.77952 51.83488L446.08512 404.18304z" p-id="630" fill="#12df12"></path></svg>