<svg width="18" height="18" viewBox="0 0 18 18" fill="none" xmlns="http://www.w3.org/2000/svg">
<path opacity="0.8" fill-rule="evenodd" clip-rule="evenodd" d="M2 1C1.44772 1 1 1.44772 1 2V16C1 16.5523 1.44772 17 2 17H16C16.5523 17 17 16.5523 17 16V2C17 1.44772 16.5523 1 16 1H2ZM10.5455 4.31635V10.1364V12.3182V14.5L14.9091 10.1364H12.1818V4.31635C12.1818 3.86448 11.8155 3.49817 11.3636 3.49817C10.9118 3.49817 10.5455 3.86448 10.5455 4.31635ZM3 7.86362L7.36364 3.49999V5.68181V7.86362V13.6836C7.36364 14.1355 6.99732 14.5018 6.54545 14.5018C6.09359 14.5018 5.72727 14.1355 5.72727 13.6836V7.86362H3Z" fill="white"/>
</svg>
