<svg width="18" height="18" viewBox="0 0 18 18" fill="none" xmlns="http://www.w3.org/2000/svg">
<g opacity="0.8" clip-path="url(#clip0)">
<path d="M12.5928 10.4458C12.4012 10.253 12.2096 10.3494 12.018 10.4458L10.3892 12.1807C10.1976 12.3735 10.2934 12.5663 10.3892 12.759L14.4132 16.7108C15.0838 17.2891 15.4671 16.8072 16.0419 16.2289C16.6168 15.5542 17.1916 14.9759 16.521 14.3976L12.5928 10.4458Z" fill="white"/>
<path d="M16.1377 4.9518L15.3713 5.72289C14.509 6.59036 13.1677 6.68674 12.3054 5.81927C11.4431 4.9518 11.3473 3.60241 12.2096 2.63855L12.9761 1.77108C13.3593 1.28915 13.0719 0.807225 12.3054 0.903611C10.1018 1.48192 8.66469 3.60241 9.04792 5.81927C9.04792 5.91566 9.04792 5.91566 9.04792 6.01204L2.53295 13.1446C1.67068 14.012 1.76649 15.4578 2.62876 16.3253C3.49104 17.1928 4.92816 17.0964 5.69463 16.2289L12.2096 9.09638C14.4132 9.48192 16.521 8.03614 16.9042 5.72289C16.9042 5.6265 16.9042 5.53012 16.9042 5.53012C17.0958 4.75903 16.6168 4.46988 16.1377 4.9518ZM5.3114 14.5904C5.3114 15.1687 4.83236 15.5542 4.2575 15.5542C3.68265 15.5542 3.29942 15.0723 3.29942 14.494C3.29942 13.9157 3.77846 13.4337 4.35331 13.5301C4.92816 13.5301 5.3114 14.012 5.3114 14.5904Z" fill="white"/>
<path d="M3.58683 5.33735L6.07785 7.74698C6.17366 7.84337 6.36527 7.84337 6.55689 7.74698L7.22755 7.07229C7.32336 6.9759 7.32336 6.68674 7.22755 6.59036L4.64072 4.18072C4.64072 4.18072 4.64072 4.08433 4.54491 4.08433L3.97006 3.02409C3.97006 3.02409 3.97006 2.92771 3.87426 2.92771L2.24551 1.77108C2.1497 1.6747 1.95809 1.6747 1.86228 1.77108L1.09581 2.54216C1 2.73494 1 2.83132 1.09581 3.02409L2.34132 4.66265L2.43713 4.75903L3.58683 5.33735C3.58683 5.33735 3.49102 5.33735 3.58683 5.33735Z" fill="white"/>
</g>
<defs>
<clipPath id="clip0">
<rect width="16" height="16" fill="white" transform="translate(1 1)"/>
</clipPath>
</defs>
</svg>
