<svg width="18" height="18" viewBox="0 0 18 18" fill="none" xmlns="http://www.w3.org/2000/svg">
<g opacity="0.8" clip-path="url(#clip0)">
<path d="M16.7148 5.54788C16.6819 5.4711 16.6081 5.4229 16.5363 5.3803L9.33045 1.1086C9.25859 1.066 9.19396 1.00528 9.11274 0.985764C9.06888 0.975227 9.02141 0.975124 8.97748 0.985456C8.89531 1.00478 8.82989 1.06614 8.75716 1.10899L1.50954 5.37991C1.43682 5.42276 1.36269 5.47158 1.32873 5.54886C1.27387 5.67374 1.29763 5.82063 1.40002 5.88889L8.71624 10.2699C8.78664 10.312 8.84994 10.3717 8.92956 10.3915C8.97518 10.4028 9.02486 10.4028 9.07047 10.3915C9.1501 10.3717 9.2134 10.312 9.2838 10.2699L16.6 5.88889C16.7369 5.82046 16.7684 5.67298 16.7148 5.54788Z" fill="white"/>
<path d="M1 7.88891V9.04447C1 9.1778 1.04444 9.22225 1.13333 9.26669L8.64444 13.7111C8.86667 13.8445 9.13333 13.8445 9.35556 13.7111L16.8667 9.26669C16.9556 9.22225 17 9.13336 17 9.04447V7.88891C17 7.71113 16.8222 7.5778 16.6889 7.66669L9.22222 12.1111C9.13333 12.1556 9 12.1556 8.91111 12.1111L1.4 7.66669C1.22222 7.62225 1 7.71113 1 7.88891Z" fill="white"/>
<path d="M1 11.0889V12.2444C1 12.3778 1.04444 12.4222 1.13333 12.4667L8.64444 16.9111C8.86667 17.0445 9.13333 17.0445 9.35556 16.9111L16.8667 12.4667C16.9556 12.4222 17 12.3333 17 12.2444V11.0889C17 10.9111 16.8222 10.7778 16.6889 10.8667L9.22222 15.3111C9.13333 15.3556 9 15.3556 8.91111 15.3111L1.4 10.8667C1.22222 10.7778 1 10.9111 1 11.0889Z" fill="white"/>
</g>
<defs>
<clipPath id="clip0">
<rect width="16" height="16" fill="white" transform="translate(1 1)"/>
</clipPath>
</defs>
</svg>
