<?xml version="1.0" encoding="UTF-8"?>
<svg width="32px" height="32px" viewBox="0 0 32 32" version="1.1" xmlns="http://www.w3.org/2000/svg" xmlns:xlink="http://www.w3.org/1999/xlink">
    <title>icon1-not</title>
    <g id="控件" stroke="none" stroke-width="1" fill="none" fill-rule="evenodd">
        <g id="icon1-not" fill="#477CCC">
            <path d="M20.1364388,20 C20.1364388,20 23.0909592,21.1429333 26.0454796,22.2858667 C29,23.4288 29,28 29,28 L3,28 L3.00029728,27.9711378 C3.00639161,27.5821886 3.13741955,23.3756403 5.95452039,22.2858667 C8.90904077,21.1429333 11.8635612,20 11.8635612,20 C11.8635612,20 13.0454796,21.1429333 16,21.1429333 C18.9545204,21.1429333 20.1364388,20 20.1364388,20 Z M16,4 C20.200112,4 22,5.7301479 22,10.3460296 C22,14.9613728 19,19 16,19 C13,19 10,14.9613728 10,10.3460296 C10,5.7301479 12.400224,4 16,4 Z" id="形状结合"></path>
        </g>
    </g>
</svg>