<?xml version="1.0" encoding="utf-8"?>
<!-- Generator: Adobe Illustrator 24.0.0, SVG Export Plug-In . SVG Version: 6.00 Build 0)  -->
<svg version="1.1" id="图层_1" xmlns="http://www.w3.org/2000/svg" xmlns:xlink="http://www.w3.org/1999/xlink" x="0px" y="0px"
	 viewBox="0 0 248 46" style="enable-background:new 0 0 248 46;" xml:space="preserve">
<style type="text/css">
	.st0{fill:#D7D8D9;}
</style>
<path class="st0" d="M122.32,21.3c0.71-2.29,3.19-3.89,5.55-3.95c1.98-0.05,2.84,0.39,3.67,1.16c1.3,1.18,1.59,2.79,1.59,2.79
	H122.32z M128.46,11.99c-7.53,0.03-12.63,4.39-13.52,12.4c-0.52,7.84,4.83,11.97,11.06,12.34c4.02,0.23,7.52-0.78,10.79-2.86
	l0.64-4.52c0,0-4.19,2.71-9.79,2.11c-4.04-0.42-6.11-2.67-6.32-5.11h17.2c0,0,0.37-2.47,0.38-3.92
	C138.92,17.38,136.12,12.05,128.46,11.99"/>
<path class="st0" d="M154.88,12.03c-0.03,0-11.97-0.02-11.97-0.02l-4.31,24.74h7.7l3.16-18.57h4.52c1.36,0,2.04,0.98,1.89,2.13
	l-2.86,16.44h7.71l2.59-15.15C164.51,16.47,161.02,11.7,154.88,12.03"/>
<path class="st0" d="M184.86,29.51c-1.77,0.52-4.81,1.18-6.2,1.18c-1.3,0-2.16-0.34-1.76-2.6l1.76-10.1h7.93l1.05-5.97h-7.93
	l1.64-9.36h-7.7l-1.64,9.36h-5.25l-1.06,5.97h5.25l-2.06,11.74c-0.98,5.58,2.42,7.02,6.94,7.02c1.56,0,5.47-0.54,7.9-0.99
	L184.86,29.51z"/>
<path class="st0" d="M220.71,29.51c-1.77,0.52-4.81,1.18-6.2,1.18c-1.3,0-2.16-0.34-1.76-2.6l1.77-10.1h7.93l1.05-5.97h-7.93
	l1.64-9.36h-7.7l-1.64,9.36h-5.25l-1.06,5.97h5.25l-2.06,11.74c-0.98,5.58,2.42,7.02,6.95,7.02c1.56,0,5.47-0.54,7.9-0.99
	L220.71,29.51z"/>
<path class="st0" d="M240.8,11.94l-3.09,17.53c-1.21,0.22-2.45,0.36-3.52,0.36c-3.69,0-4.27-2.61-3.38-7.64l1.8-10.25h-7.2
	l-1.86,10.56c-1.65,9.36,2.67,12.91,9.55,12.91c0.95,0,2.22-0.09,3.47-0.27c-0.73,4.14-2.76,5.18-4.83,5.18
	c-2.22,0-4.93-0.27-8.25-0.84l-1.01,5.72c3.85,0.66,5.92,0.7,8.23,0.7c7.79,0,12-4,13.22-10.93L248,11.94H240.8z"/>
<path class="st0" d="M190.18,21.76l-2.64,15h7.44l4.36-24.72h-7.44L190.18,21.76z M199.95,3.69c-0.5-0.67-1.37-1-2.6-1
	c-1.2,0-2.34,0.3-3.12,0.96c-0.78,0.66-1.14,1.63-1.39,2.81c-0.25,1.13-0.1,2.02,0.42,2.68c0.53,0.64,1.36,0.97,2.49,0.97
	c1.19,0,2.3-0.25,3.1-0.89c0.81-0.64,1.21-1.59,1.46-2.75C200.57,5.27,200.45,4.35,199.95,3.69"/>
<path class="st0" d="M57.41,10.44c-8.11,0.03-13.61,4.74-14.57,13.36c-0.56,8.45,5.2,12.91,11.92,13.3
	c4.33,0.25,8.11-0.84,11.62-3.08l0.69-4.87c0,0-4.51,2.91-10.55,2.27c-4.35-0.46-6.58-2.88-6.81-5.51h18.54c0,0,0.4-2.66,0.41-4.22
	C68.68,16.25,65.66,10.51,57.41,10.44z M50.78,20.48c0.78-2.48,3.44-4.19,5.98-4.26c2.13-0.05,3.06,0.42,3.96,1.25
	c1.4,1.27,1.72,3.02,1.72,3.02H50.78z"/>
<polygon class="st0" points="45.09,0.36 36.79,0.36 32.87,22.84 27.79,10.4 19.5,10.4 10.89,22.22 14.7,0.36 6.41,0.36 0,37.1 
	0.05,37.1 8.29,37.1 8.3,37.1 8.3,37.09 22.54,17.84 30.38,37.09 30.38,37.1 30.39,37.1 38.68,37.1 38.69,37.1 38.68,37.08 "/>
<polygon class="st0" points="76.43,0.36 69.96,37.09 78.44,37.09 84.92,0.36 "/>
<path class="st0" d="M102.3,30.98c-0.6,0.17-1.14,0.27-1.61,0.32c-0.48,0.05-1,0.07-1.56,0.07c-0.94,0-1.78-0.12-2.54-0.37
	c-0.76-0.24-1.38-0.65-1.86-1.21c-0.48-0.56-0.81-1.31-0.97-2.24c-0.17-0.94-0.13-2.08,0.11-3.43c0.19-1.08,0.5-2.13,0.94-3.13
	c0.43-1,0.98-1.87,1.64-2.61c0.67-0.74,1.45-1.33,2.35-1.78c0.9-0.44,1.9-0.67,3-0.67c0.63,0,1.15,0.02,1.56,0.07
	c0.41,0.05,0.93,0.16,1.57,0.32L102.3,30.98z M107.74,0.48l-1.85,10.49c-0.57-0.16-1.18-0.27-1.82-0.32
	c-0.64-0.05-1.26-0.08-1.86-0.08c-2,0-3.88,0.35-5.65,1.06c-1.76,0.71-3.33,1.67-4.7,2.88c-1.37,1.22-2.51,2.66-3.42,4.31
	c-0.91,1.66-1.54,3.43-1.88,5.3c-0.42,2.37-0.42,4.37,0,6.01c0.42,1.64,1.16,2.98,2.21,4.02c1.05,1.04,2.34,1.79,3.87,2.27
	c1.53,0.48,3.18,0.71,4.95,0.71l10.69-0.01l6.4-36.65H107.74z"/>
</svg>
