<?xml version="1.0" standalone="no"?><!DOCTYPE svg PUBLIC "-//W3C//DTD SVG 1.1//EN" "http://www.w3.org/Graphics/SVG/1.1/DTD/svg11.dtd"><svg t="1596442431976" class="icon" viewBox="0 0 1024 1024" version="1.1" xmlns="http://www.w3.org/2000/svg" p-id="17395" xmlns:xlink="http://www.w3.org/1999/xlink" width="200" height="200"><defs><style type="text/css"></style></defs><path d="M679.04987325 439.63954997c-7.40820587-8.3472769-20.24214849-21.80725986-38.60615504-40.48429013l-14.29471277 12.41657066c14.39905404 15.0250943 26.60694219 29.00678338 36.41499623 41.84072601l16.48587158-13.77300654z m0 0M646.07813029 564.43133211c0 9.0776655-2.39984113 16.90323626-7.09518923 23.47671251l13.35564177 15.33811811c9.70370594-11.16448302 24.10275987-26.08523607 42.98847934-44.86660752-2.29549999-8.13859443-3.86061821-15.0250943-4.48666556-20.45083087-10.64277693 11.58184795-19.61610123 20.86818885-26.81562476 27.75469564v-91.71569823h-46.53606707v16.90323628h28.48508431l0.1043412 73.56037408z m0 0" fill="#1afa29" p-id="17396"></path><path d="M765.33984176 596.88136891h-37.35406042v-130.00882934h-18.05098969v130.00882934h-32.6587192v17.42493572h173.72769047v-17.42493572h-66.77820856v-83.68144484h54.5703203V495.77498156h-54.5703203v-70.74316808h63.02193851v-17.42494239h-157.03314359v17.42494239h75.22983357v171.84955543z m0 0M336.3941743 489.20149852h-140.65161329v-32.24135432h-20.24214156V579.24774418c0 24.72880726 11.99921282 37.14537796 35.99763129 37.14538473h125.10480616c21.59857744 0 34.84987796-8.86898301 39.54521903-26.60694909 2.50418239-9.70370594 4.90402354-22.74633089 7.09518228-39.02351296-7.40820587-1.98247628-14.08603028-4.38231749-20.24214164-7.09518925-1.35643596 15.9641653-3.54759457 28.79810096-6.36480058 38.39747253-2.81720608 9.70370594-10.95580047 14.60773638-24.41578358 14.60773645h-115.92279928c-13.66866533 0-20.45082406-7.19952349-20.45083091-21.59857749v-68.44766826h140.65161342v14.29471286h19.72043552v-109.55800558H166.84011879v17.42494247h169.55405551v60.41340793z m0 0M416.42368354 568.9179909c0 8.66030065-2.50418239 15.54680048-7.51254717 20.65950634l13.8773478 14.60773649c3.02588854-4.27797612 6.57348315-8.3472769 10.85145926-12.20788831 14.92076013-13.3556418 30.46756043-26.29391854 46.84909081-38.81483742-1.56511134-5.73875331-2.81720608-12.10355401-3.75627711-18.99005373-16.2771891 13.77300656-30.25887809 25.35485442-41.84072592 34.53685407V472.81996823h-49.87497227v16.90323637h31.51096582l-0.10434122 79.1947863z m0 0" fill="#1afa29" p-id="17397"></path><path d="M450.12581483 611.28041611c5.53007093 5.63441209 10.01672957 10.64277693 13.66866549 15.02510111 39.54521901-30.67624293 63.64798579-69.80409702 72.30827955-117.07055267 12.10355401 51.75311429 34.84987796 89.31585703 68.34332698 112.89691081 4.59099984-5.84309455 9.59936465-11.79053037 15.23377663-18.15532407-42.88413125-25.35485442-68.65635065-73.87339781-77.21230305-145.45128876 0.41736492-19.7204423 0.62604738-39.96258402 0.8347229-60.51775615h-19.0943881c0 21.91160117-0.20868234 41.73638476-0.73038866 59.26566151-0.31302366 67.71727967-24.83314837 119.05302893-73.35169174 154.00724822z m0 0M459.93386196 441.51768491c-11.47750657-12.520912-24.72880726-26.39825982-39.75390137-41.63204348l-13.8773479 11.79053038c13.98168902 15.0250943 26.39825982 29.42414823 37.35406045 43.30149609l16.27718882-13.45998299z m0 0" fill="#1afa29" p-id="17398"></path><path d="M885.33194171 700.59628005h-752.81999467c-38.39747257 0-69.59541469-31.19794911-69.59542166-69.59542171v-237.68869303c0-38.39747257 31.19794911-69.59541469 69.59542166-69.59542163h752.81999467c38.39747257 0 69.59541469 31.19794911 69.59541467 69.59542163v237.68869303c-0.10434127 38.29313138-31.30228333 69.59541469-69.59541467 69.59542171z m-752.81999467-356.01134058c-26.81562464 0-48.72722588 21.80725986-48.72722591 48.72722584v237.68869303c0 26.81562464 21.80725986 48.72722588 48.72722591 48.72722589h752.81999467c26.81562464 0 48.72722588-21.80725986 48.72722575-48.72722589v-237.68869303c0-26.81562464-21.80725986-48.72722588-48.72722575-48.72722584h-752.81999467z" fill="#1afa29" p-id="17399"></path></svg>