<svg width="18" height="18" viewBox="0 0 18 18" fill="none" xmlns="http://www.w3.org/2000/svg">
<g opacity="0.8" clip-path="url(#clip0)">
<path d="M16.4825 2.97129C16.4825 2.6268 16.6981 2.32536 17 2.19617C16.9137 1.89474 16.8275 1.63637 16.655 1.37799C16.3531 1.50718 16.0081 1.46412 15.7493 1.20574C15.4906 0.94737 15.4474 0.602873 15.5768 0.301437C15.318 0.172251 15.0593 0.0430641 14.7574 -0.0430603C14.628 0.258375 14.3261 0.473686 13.9811 0.473686C13.6361 0.473686 13.3342 0.258375 13.2048 -0.0430603C12.903 0.0430641 12.6442 0.129189 12.3854 0.301437C12.5148 0.602873 12.4717 0.94737 12.2129 1.20574C11.9542 1.46412 11.6091 1.50718 11.3073 1.37799C11.1779 1.63637 11.0485 1.89474 10.9622 2.19617C11.2641 2.32536 11.4798 2.6268 11.4798 2.97129C11.4798 3.31579 11.2641 3.61723 10.9622 3.74641C11.0485 4.04785 11.1348 4.30622 11.3073 4.5646C11.6091 4.43541 11.9542 4.47847 12.2129 4.73684C12.4717 4.99522 12.5148 5.33972 12.3854 5.64115C12.6442 5.77034 12.903 5.89952 13.2048 5.98565C13.3342 5.68421 13.6361 5.4689 13.9811 5.4689C14.3261 5.4689 14.628 5.68421 14.7574 5.98565C15.0593 5.89952 15.318 5.8134 15.5768 5.64115C15.4474 5.33972 15.4906 4.99522 15.7493 4.73684C16.0081 4.47847 16.3531 4.43541 16.655 4.5646C16.7844 4.30622 16.9137 4.04785 17 3.74641C16.6981 3.61723 16.4825 3.31579 16.4825 2.97129ZM14.0242 4.09091C13.4205 4.09091 12.903 3.57416 12.903 2.97129C12.903 2.36842 13.4205 1.85168 14.0242 1.85168C14.628 1.85168 15.1455 2.36842 15.1455 2.97129C15.1455 3.57416 14.628 4.09091 14.0242 4.09091Z" fill="white"/>
<path d="M14.7143 6.67466C14.5849 6.33016 14.2399 6.07179 13.8518 6.07179C13.4636 6.07179 13.1186 6.33016 12.9892 6.67466C12.6873 6.58854 12.3854 6.45935 12.0836 6.2871C12.2129 5.94261 12.1698 5.51198 11.9111 5.21055C11.6523 4.90911 11.221 4.86605 10.9191 4.99524C10.7466 4.6938 10.6173 4.39237 10.531 4.04787C10.876 3.91868 11.1348 3.57418 11.1348 3.14356C11.1348 2.756 10.876 2.4115 10.531 2.23926C10.5741 2.02394 10.6604 1.80863 10.7466 1.59332H1.69003C1.34501 1.67945 1 2.02394 1 2.45457V17.2249C1 17.6555 1.34501 18 1.73315 18H14.628C15.0162 18 15.3612 17.6555 15.3612 17.2249V6.41629C15.1456 6.54548 14.9299 6.6316 14.7143 6.67466ZM2.9407 6.41629C2.9407 6.15792 3.15633 5.94261 3.41509 5.94261H9.32345C9.58221 5.94261 9.79784 6.15792 9.79784 6.41629V6.71772C9.79784 6.9761 9.58221 7.19141 9.32345 7.19141H3.41509C3.15633 7.19141 2.9407 6.9761 2.9407 6.71772V6.41629ZM13.248 14.3828C13.248 14.6842 12.9892 14.9426 12.6873 14.9426H3.54447C3.24259 14.9426 2.98383 14.6842 2.98383 14.3828V14.2536C2.98383 13.9522 3.24259 13.6938 3.54447 13.6938H12.6442C12.9461 13.6938 13.2049 13.9522 13.2049 14.2536V14.3828H13.248ZM13.248 10.6364C13.248 10.8948 13.0323 11.067 12.8167 11.067H3.37197C3.11321 11.067 2.9407 10.8517 2.9407 10.6364V10.2919C2.9407 10.0335 3.15633 9.86127 3.37197 9.86127H12.7736C13.0323 9.86127 13.2049 10.0766 13.2049 10.2919V10.6364H13.248Z" fill="white"/>
</g>
<defs>
<clipPath id="clip0">
<rect width="16" height="18" fill="white" transform="translate(1)"/>
</clipPath>
</defs>
</svg>
